# xmcd
#
# Track frame offsets:
#	150
#	15783
#	29789
#	41780
#	53861
#	68466
#	80400
#	95061
#	108718
#	126369
#	142627
#	159344
#	172552
#	182909
#	196550
#	209446
#	226808
#	240173
#	249948
#	268796
#
# Disc length: 3762 seconds
#
# Revision: 1
# Processed by: cddbd v1.5.2PL0 Copyright (c) Steve Scherf et al.
# Submitted via: audiograbber 1.83.01
#
DISCID=fa0eb014
DTITLE=Stardust - Stardust 077
DYEAR=2009
DGENRE=Country
TTITLE0=Circle Of Friends  - Charlie Louvin With Dolly Parton and Alison Krause
TTITLE1=Lost Without You  - Kenton Koty
TTITLE2=Raising Cane In Texas  - Henry Brewer
TTITLE3=Noboddy´s Fool  - Kacy Fox
TTITLE4=I Thought It Was Love  - Carmine Dio
TTITLE5=Worries Don´t Bother Me  - Vaden Carr
TTITLE6=I´ll Leave The World To Love You  - Beau Renfro
TTITLE7=If The Rose Could Talk  - Jerri Arnold
TTITLE8=Radio Of Gold  - Carmine Dio
TTITLE9=Get Your Hands Off Me Baby  - Steve and The Sleeping Hounds
TTITLE10=Don´t Make Me A Memory  - Steve and The Sleeping Hounds
TTITLE11=A Special Love - Juli Maners 
TTITLE12=Blue Darlin  - Donna Darlene
TTITLE13=The House  - Jack Blanchard and Misty Morgan
TTITLE14=Forever Gone  - Ernie Ashworth
TTITLE15=One Day At A Time  - Mayf Nutter
TTITLE16=Heavently Walk  - Brazosgrass
TTITLE17=You Walk By - Buster Doss
TTITLE18=I Can´t See Me Without You  - Rooster Quantrell
TTITLE19=Making It Matter  - Chris Cline
EXTD=
EXTT0=
EXTT1=
EXTT2=
EXTT3=
EXTT4=
EXTT5=
EXTT6=
EXTT7=
EXTT8=
EXTT9=
EXTT10=
EXTT11=
EXTT12=
EXTT13=
EXTT14=
EXTT15=
EXTT16=
EXTT17=
EXTT18=
EXTT19=
PLAYORDER=
